<svg width="24" height="25" viewBox="0 0 24 25" fill="none" xmlns="http://www.w3.org/2000/svg">
<path d="M1.5 17.1C1.5 16.7022 1.65804 16.3206 1.93934 16.0393C2.22064 15.758 2.60218 15.6 3 15.6H6C6.39782 15.6 6.77936 15.758 7.06066 16.0393C7.34196 16.3206 7.5 16.7022 7.5 17.1V21.6C7.5 21.9978 7.34196 22.3793 7.06066 22.6606C6.77936 22.9419 6.39782 23.1 6 23.1H3C2.60218 23.1 2.22064 22.9419 1.93934 22.6606C1.65804 22.3793 1.5 21.9978 1.5 21.6V17.1ZM9 11.1C9 10.7022 9.15804 10.3206 9.43934 10.0393C9.72064 9.75801 10.1022 9.59998 10.5 9.59998H13.5C13.8978 9.59998 14.2794 9.75801 14.5607 10.0393C14.842 10.3206 15 10.7022 15 11.1V21.6C15 21.9978 14.842 22.3793 14.5607 22.6606C14.2794 22.9419 13.8978 23.1 13.5 23.1H10.5C10.1022 23.1 9.72064 22.9419 9.43934 22.6606C9.15804 22.3793 9 21.9978 9 21.6V11.1ZM16.5 3.59998C16.5 3.20215 16.658 2.82062 16.9393 2.53932C17.2206 2.25801 17.6022 2.09998 18 2.09998H21C21.3978 2.09998 21.7794 2.25801 22.0607 2.53932C22.342 2.82062 22.5 3.20215 22.5 3.59998V21.6C22.5 21.9978 22.342 22.3793 22.0607 22.6606C21.7794 22.9419 21.3978 23.1 21 23.1H18C17.6022 23.1 17.2206 22.9419 16.9393 22.6606C16.658 22.3793 16.5 21.9978 16.5 21.6V3.59998Z" fill="black"/>
</svg>
