<svg width="24" height="25" viewBox="0 0 24 25" fill="none" xmlns="http://www.w3.org/2000/svg">
<g id="icons/dashboard">
<path id="Vector" d="M1.5 4.54999C1.5 3.95325 1.73705 3.38095 2.15901 2.959C2.58097 2.53704 3.15326 2.29999 3.75 2.29999H8.25C8.84674 2.29999 9.41903 2.53704 9.84099 2.959C10.2629 3.38095 10.5 3.95325 10.5 4.54999V9.04999C10.5 9.64672 10.2629 10.219 9.84099 10.641C9.41903 11.0629 8.84674 11.3 8.25 11.3H3.75C3.15326 11.3 2.58097 11.0629 2.15901 10.641C1.73705 10.219 1.5 9.64672 1.5 9.04999V4.54999ZM13.5 4.54999C13.5 3.95325 13.7371 3.38095 14.159 2.959C14.581 2.53704 15.1533 2.29999 15.75 2.29999H20.25C20.8467 2.29999 21.419 2.53704 21.841 2.959C22.2629 3.38095 22.5 3.95325 22.5 4.54999V9.04999C22.5 9.64672 22.2629 10.219 21.841 10.641C21.419 11.0629 20.8467 11.3 20.25 11.3H15.75C15.1533 11.3 14.581 11.0629 14.159 10.641C13.7371 10.219 13.5 9.64672 13.5 9.04999V4.54999ZM1.5 16.55C1.5 15.9533 1.73705 15.381 2.15901 14.959C2.58097 14.537 3.15326 14.3 3.75 14.3H8.25C8.84674 14.3 9.41903 14.537 9.84099 14.959C10.2629 15.381 10.5 15.9533 10.5 16.55V21.05C10.5 21.6467 10.2629 22.219 9.84099 22.641C9.41903 23.0629 8.84674 23.3 8.25 23.3H3.75C3.15326 23.3 2.58097 23.0629 2.15901 22.641C1.73705 22.219 1.5 21.6467 1.5 21.05V16.55ZM13.5 16.55C13.5 15.9533 13.7371 15.381 14.159 14.959C14.581 14.537 15.1533 14.3 15.75 14.3H20.25C20.8467 14.3 21.419 14.537 21.841 14.959C22.2629 15.381 22.5 15.9533 22.5 16.55V21.05C22.5 21.6467 22.2629 22.219 21.841 22.641C21.419 23.0629 20.8467 23.3 20.25 23.3H15.75C15.1533 23.3 14.581 23.0629 14.159 22.641C13.7371 22.219 13.5 21.6467 13.5 21.05V16.55Z" fill="black"/>
</g>
</svg>
