<?xml version="1.0" standalone="no"?>
<!DOCTYPE svg PUBLIC "-//W3C//DTD SVG 20010904//EN"
 "http://www.w3.org/TR/2001/REC-SVG-20010904/DTD/svg10.dtd">
<svg version="1.0" xmlns="http://www.w3.org/2000/svg"
 width="512.000000pt" height="512.000000pt" viewBox="0 0 512.000000 512.000000"
 preserveAspectRatio="xMidYMid meet">

<g transform="translate(0.000000,512.000000) scale(0.100000,-0.100000)"
fill="#000000" stroke="none">
<path d="M4480 4880 l0 -80 102 0 103 0 -382 -382 -383 -383 -343 343 c-317
317 -345 342 -377 342 -32 0 -66 -32 -497 -462 l-463 -463 -263 263 c-242 241
-266 262 -297 262 -32 0 -72 -38 -605 -570 l-570 -570 58 -57 57 -58 530 530
530 530 263 -263 c242 -241 266 -262 297 -262 32 0 67 32 497 462 l463 463
343 -343 c317 -317 345 -342 377 -342 32 0 64 30 457 422 l423 423 0 -103 0
-102 80 0 80 0 0 215 c0 288 23 265 -265 265 l-215 0 0 -80z"/>
<path d="M3785 3575 l-25 -24 0 -631 0 -631 25 -24 c24 -25 26 -25 215 -25
189 0 191 0 215 25 l25 24 0 631 0 631 -25 24 c-24 25 -26 25 -215 25 -189 0
-191 0 -215 -25z m295 -655 l0 -520 -80 0 -80 0 0 520 0 520 80 0 80 0 0 -520z"/>
<path d="M2345 3415 l-25 -24 0 -551 0 -551 25 -24 c24 -25 26 -25 215 -25
189 0 191 0 215 25 l25 24 0 551 0 551 -25 24 c-24 25 -26 25 -215 25 -189 0
-191 0 -215 -25z m295 -575 l0 -440 -80 0 -80 0 0 440 0 440 80 0 80 0 0 -440z"/>
<path d="M3065 3175 l-25 -24 0 -431 0 -431 25 -24 c24 -25 26 -25 215 -25
189 0 191 0 215 25 l25 24 0 431 0 431 -25 24 c-24 25 -26 25 -215 25 -189 0
-191 0 -215 -25z m295 -455 l0 -320 -80 0 -80 0 0 320 0 320 80 0 80 0 0 -320z"/>
<path d="M1625 2855 l-25 -24 0 -271 0 -271 25 -24 c24 -25 26 -25 215 -25
189 0 191 0 215 25 l25 24 0 271 0 271 -25 24 c-24 25 -26 25 -215 25 -189 0
-191 0 -215 -25z m295 -295 l0 -160 -80 0 -80 0 0 160 0 160 80 0 80 0 0 -160z"/>
<path d="M4495 2186 c-22 -7 -160 -75 -307 -150 l-267 -137 -33 37 c-86 98
-220 150 -363 142 -96 -6 -102 -9 -630 -280 -219 -112 -220 -113 -290 -113
l-70 0 -275 145 c-300 158 -385 193 -524 215 -114 19 -195 19 -316 0 -120 -18
-218 -51 -337 -115 -63 -34 -95 -46 -98 -38 -2 7 -14 62 -26 122 -27 126 -45
156 -95 156 -51 0 -645 -129 -671 -146 -13 -8 -25 -25 -29 -38 -7 -28 351
-1746 372 -1788 8 -15 25 -30 39 -34 28 -7 645 121 687 142 38 20 43 52 24
151 -10 47 -16 86 -14 87 14 10 274 56 315 56 29 0 299 -27 600 -61 614 -68
670 -70 826 -24 148 43 41 -25 1214 762 368 247 672 457 683 473 90 126 51
288 -93 383 -94 62 -225 84 -322 53z m224 -179 c46 -31 81 -80 81 -114 0 -12
-10 -33 -22 -46 -38 -41 -1606 -1088 -1698 -1134 -89 -44 -203 -73 -288 -73
-27 0 -129 9 -228 20 -696 77 -925 100 -981 100 -53 0 -212 -27 -324 -55 l-24
-6 -103 493 c-57 271 -103 499 -102 506 0 17 121 94 205 129 123 52 197 67
340 67 206 0 253 -16 630 -215 143 -76 282 -143 308 -150 27 -6 81 -9 125 -7
77 5 78 6 464 202 l387 196 70 0 c95 0 181 -43 229 -115 36 -53 37 -84 4 -117
-22 -22 -900 -543 -977 -579 -94 -45 -188 -62 -318 -57 -99 4 -159 16 -510
101 -219 54 -404 97 -411 97 -12 0 -49 -139 -40 -149 2 -2 187 -49 411 -103
392 -95 414 -99 548 -105 163 -6 263 12 388 71 85 39 956 555 1007 595 41 33
79 104 80 147 0 17 6 36 13 42 6 5 137 74 291 152 l279 142 62 -4 c47 -3 73
-11 104 -31z m-3909 -59 c6 -29 79 -381 163 -781 85 -400 151 -730 148 -731
-14 -8 -451 -99 -456 -95 -9 10 -328 1549 -322 1555 5 5 416 99 449 103 4 1
11 -23 18 -51z"/>
<path d="M592 1793 c-58 -13 -72 -19 -68 -32 3 -9 10 -44 17 -79 11 -57 14
-63 33 -59 12 3 47 11 79 17 53 11 58 14 54 33 -3 12 -11 48 -17 80 -6 31 -14
56 -18 56 -4 -1 -40 -8 -80 -16z"/>
</g>
</svg>
