<svg width="24" height="25" viewBox="0 0 24 25" fill="none" xmlns="http://www.w3.org/2000/svg">
<g id="icons/wallet" clip-path="url(#clip0_20_16)">
<path id="Vector" d="M2.25 3.59999C1.65326 3.59999 1.08097 3.83704 0.65901 4.259C0.237053 4.68096 0 5.25325 0 5.84999L0 8.84999H9C9.19891 8.84999 9.38968 8.92901 9.53033 9.06966C9.67098 9.21031 9.75 9.40108 9.75 9.59999C9.75 9.97949 9.87 10.566 10.209 11.037C10.5195 11.469 11.0445 11.85 12 11.85C12.9555 11.85 13.4805 11.469 13.791 11.037C14.13 10.566 14.25 9.97949 14.25 9.59999C14.25 9.40108 14.329 9.21031 14.4697 9.06966C14.6103 8.92901 14.8011 8.84999 15 8.84999H24V5.84999C24 5.25325 23.7629 4.68096 23.341 4.259C22.919 3.83704 22.3467 3.59999 21.75 3.59999H2.25Z" fill="black"/>
<path id="Vector_2" d="M24 10.35H15.6735C15.5659 10.9124 15.3394 11.4453 15.009 11.913C14.4195 12.732 13.4445 13.35 12 13.35C10.5555 13.35 9.5805 12.732 8.991 11.913C8.66067 11.4453 8.43411 10.9124 8.3265 10.35H0V19.35C0 19.9467 0.237053 20.519 0.65901 20.941C1.08097 21.3629 1.65326 21.6 2.25 21.6H21.75C22.3467 21.6 22.919 21.3629 23.341 20.941C23.7629 20.519 24 19.9467 24 19.35V10.35Z" fill="black"/>
</g>
<defs>
<clipPath id="clip0_20_16">
<rect width="24" height="24" fill="white" transform="translate(0 0.599991)"/>
</clipPath>
</defs>
</svg>
