<svg width="24" height="25" viewBox="0 0 24 25" fill="none" xmlns="http://www.w3.org/2000/svg">
<g clip-path="url(#clip0_20_21)">
<path d="M1.99951 4.20045C1.99951 1.99095 6.47701 0.199951 12 0.199951C17.523 0.199951 22.0005 1.99095 22.0005 4.20045V6.19995C22.0005 8.40945 17.523 10.2005 12 10.2005C6.47701 10.2005 1.99951 8.40945 1.99951 6.19995V4.20045Z" fill="black"/>
<path d="M1.99951 9.70093V14.2009C1.99951 16.4074 6.47701 18.1999 12 18.1999C17.523 18.1999 22.0005 16.4089 22.0005 14.1994V9.70093C21.325 10.1875 20.59 10.5858 19.8135 10.8859C17.715 11.7259 14.9505 12.1999 12 12.1999C9.05101 12.1999 6.28651 11.7244 4.18801 10.8859C3.41146 10.5858 2.6765 10.1876 2.00101 9.70093H1.99951Z" fill="black"/>
<path d="M22.0005 17.7019C21.3249 18.188 20.59 18.5858 19.8135 18.8854C17.7135 19.7254 14.9505 20.1994 11.9985 20.1994C9.04951 20.1994 6.28501 19.7254 4.18651 18.8854C3.40998 18.5853 2.67502 18.1871 1.99951 17.7004V20.1994C1.99951 22.4089 6.47701 24.1999 12 24.1999C17.523 24.1999 22.0005 22.4089 22.0005 20.1994V17.7019Z" fill="black"/>
</g>
<defs>
<clipPath id="clip0_20_21">
<rect width="24" height="24" fill="white" transform="translate(0 0.199951)"/>
</clipPath>
</defs>
</svg>
